<?xml version="1.0" encoding="utf-8"?>
<!-- Generator: Adobe Illustrator 25.0.1, SVG Export Plug-In . SVG Version: 6.00 Build 0)  -->
<svg version="1.1" id="Layer_1" xmlns="http://www.w3.org/2000/svg" xmlns:xlink="http://www.w3.org/1999/xlink" x="0px" y="0px"
	 viewBox="0 0 1024 1024" style="enable-background:new 0 0 1024 1024;" xml:space="preserve">
<style type="text/css">
	.st0{fill:#F8A600;}
	.st1{fill:#F7C800;}
	.st2{fill:#F7CD00;}
	.st3{fill:#FFFFFF;}
</style>
<rect class="st0" width="1024" height="1024"/>
<polygon class="st1" points="0,1024 0,0 1024,0 "/>
<g>
	<polygon class="st0" points="368.55,-491.51 368.55,-467.87 440.35,-467.87 440.35,-515.95 415.52,-540.78 274.02,-540.78 
		248.71,-515.47 248.71,-420.44 271.56,-397.59 368.88,-397.59 368.88,-348.84 320.15,-348.84 320.15,-371.85 248.71,-371.85 
		248.71,-324.93 272.13,-301.51 416.96,-301.51 439.39,-323.94 439.39,-421.15 415.96,-444.58 320.22,-444.58 320.22,-491.51 	"/>
	<polygon class="st0" points="872.12,-540.22 824.56,-540.22 824.56,-468.23 752.46,-540.22 752.46,-540.22 752.46,-540.22 
		704.9,-540.22 681.12,-515.67 681.12,-322.38 705.01,-300.9 752.46,-300.9 752.46,-445.46 824.56,-373.04 824.56,-300.9 
		872.01,-300.9 895.9,-322.38 895.9,-515.67 	"/>
	<path class="st0" d="M632.41-540.6h-24.55h-23.01h-48.32h-32.22h-15.34l-23.78,24.55v193.3l23.88,21.48h47.45v-94.35h48.32v94.35
		h47.45l23.88-21.48v-193.3L632.41-540.6z M561.46-435.9l-29.92-29.92l29.92-29.92l29.92,29.92L561.46-435.9z"/>
	<path class="st2" d="M1343.86-540.22h-24.55h-23.01h-48.32h-32.22h-15.34l-23.78,24.55v193.3l23.88,21.48h47.45v-94.35h48.32v94.35
		h47.45l23.88-21.48v-193.3L1343.86-540.22z M1272.9-435.52l-29.92-29.92l29.92-29.92l29.92,29.92L1272.9-435.52z"/>
	<path class="st2" d="M1560.16-540.22h-28v-0.38h-89.75v0.38h-25.7l-23.78,24.55v193.3l23.88,21.48h25.59v0.38h89.75v-0.38h27.89
		l23.88-21.48v-193.3L1560.16-540.22z M1512.61-491.51v141.9h-48.32v-141.9H1512.61z"/>
	<g>
		<rect x="1019.38" y="-319.96" class="st0" width="18.92" height="18.92"/>
		<polygon class="st0" points="1000.47,-349.61 993.31,-349.61 993.31,-491.51 1006.59,-491.51 1006.59,-515.95 1030.85,-515.95 
			1030.85,-540.22 1006.59,-540.22 993.31,-540.22 993.31,-540.22 918.91,-540.22 918.91,-300.9 993.31,-300.9 993.31,-301.04 
			1000.47,-301.04 1000.47,-319.96 1019.38,-319.96 1019.38,-349.61 		"/>
		<rect x="1030.85" y="-515.86" class="st0" width="16.85" height="16.85"/>
	</g>
	<rect x="1038.6" y="-340.02" class="st2" width="14.02" height="14.02"/>
	<polygon class="st2" points="1129.85,-540.22 1083.95,-540.22 1082.29,-540.22 1047.7,-540.22 1047.7,-515.86 1067.04,-515.86 
		1067.04,-491.51 1082.29,-491.51 1082.29,-325.71 1052.62,-325.71 1052.62,-300.9 1083,-300.9 1083,-300.9 1129.74,-300.9 
		1153.63,-322.38 1153.63,-515.67 	"/>
</g>
<g>
	
		<rect x="979.14" y="-769.04" transform="matrix(0.7071 -0.7071 0.7071 0.7071 800.6205 539.4364)" class="st1" width="144.66" height="144.66"/>
	
		<rect x="1093.82" y="-883.72" transform="matrix(0.7071 -0.7071 0.7071 0.7071 915.3027 586.9387)" class="st1" width="144.66" height="144.66"/>
	
		<rect x="864.46" y="-883.72" transform="matrix(0.7071 -0.7071 0.7071 0.7071 848.1175 424.7565)" class="st1" width="144.66" height="144.66"/>
	
		<rect x="979.14" y="-998.4" transform="matrix(0.7071 -0.7071 0.7071 0.7071 962.7966 472.2582)" class="st1" width="144.66" height="144.66"/>
	
		<rect x="960.23" y="-1074.23" transform="matrix(0.7071 -0.7071 0.7071 0.7071 1027.3163 397.0075)" class="st1" width="65.32" height="65.32"/>
	
		<rect x="1077.02" y="-1073.35" transform="matrix(0.7071 -0.7071 0.7071 0.7071 1061.3054 478.8309)" class="st0" width="63.27" height="63.27"/>
	
		<rect x="1019.89" y="-1130.48" transform="matrix(0.7071 -0.7071 0.7071 0.7071 1084.9841 421.6979)" class="st0" width="63.27" height="63.27"/>
	<polygon class="st1" points="692.83,-783.92 692.07,-645.85 757.51,-580.38 1040.31,-580.38 720.12,-900.73 720.12,-900.73 
		696.18,-924.68 675.15,-903.65 652.52,-903.65 564.22,-815.35 595.65,-783.92 	"/>
</g>
<g>
	
		<rect x="590.46" y="618.96" transform="matrix(0.7071 -0.7071 0.7071 0.7071 -301.8627 688.4481)" class="st3" width="179.28" height="179.28"/>
	
		<rect x="732.59" y="476.83" transform="matrix(0.7071 -0.7071 0.7071 0.7071 -159.7317 747.3223)" class="st3" width="179.28" height="179.28"/>
	
		<rect x="448.33" y="476.83" transform="matrix(0.7071 -0.7071 0.7071 0.7071 -242.9903 546.3146)" class="st3" width="179.28" height="179.28"/>
	
		<rect x="590.46" y="334.7" transform="matrix(0.7071 -0.7071 0.7071 0.7071 -100.8604 605.1868)" class="st3" width="179.28" height="179.28"/>
	
		<rect x="567.02" y="240.71" transform="matrix(0.7071 -0.7071 0.7071 0.7071 -20.8994 511.9246)" class="st3" width="80.95" height="80.95"/>
	
		<rect x="711.77" y="241.82" transform="matrix(0.7071 -0.7071 0.7071 0.7071 21.2393 613.3282)" class="st3" width="78.42" height="78.42"/>
	
		<rect x="640.96" y="171.01" transform="matrix(0.7071 -0.7071 0.7071 0.7071 50.5724 542.5251)" class="st3" width="78.42" height="78.42"/>
	<polygon class="st3" points="235.62,600.53 234.67,771.64 315.78,852.78 666.27,852.78 269.44,455.75 269.44,455.75 239.76,426.07 
		213.7,452.13 185.65,452.13 76.21,561.57 115.17,600.53 	"/>
</g>
</svg>
